# Blender v2.81 (sub 16) OBJ File: 'skin1.blend'
# www.blender.org
mtllib skin1.mtl
o Plane
v -3.000000 0.000000 1.500000
v 3.000000 0.000000 1.500000
v -3.000000 0.000000 -1.500000
v 3.000000 0.000000 -1.500000
v -3.000000 0.000000 -1.000000
v -3.000000 0.000000 -0.500000
v -3.000000 0.000000 0.000000
v -3.000000 0.000000 0.500000
v -3.000000 0.000000 1.000000
v -2.000000 0.000000 1.500000
v -1.000000 0.000000 1.500000
v 0.000000 0.000000 1.500000
v 1.000000 0.000000 1.500000
v 2.000000 0.000000 1.500000
v 3.000000 0.000000 1.000000
v 3.000000 0.000000 0.500000
v 3.000000 0.000000 -0.000000
v 3.000000 0.000000 -0.500000
v 3.000000 0.000000 -1.000000
v 2.000000 0.000000 -1.500000
v 1.000000 0.000000 -1.500000
v -0.000000 0.000000 -1.500000
v -1.000000 0.000000 -1.500000
v -2.000000 0.000000 -1.500000
v -2.000000 0.000000 1.000000
v -2.000000 0.000000 0.500000
v -2.000000 0.000000 -0.000000
v -2.000000 0.000000 -0.500000
v -2.000000 0.000000 -1.000000
v -1.000000 0.000000 1.000000
v -1.000000 0.000000 0.500000
v -1.000000 0.000000 -0.000000
v -1.000000 0.000000 -0.500000
v -1.000000 0.000000 -1.000000
v 0.000000 0.000000 1.000000
v 0.000000 0.000000 0.500000
v -0.000000 0.000000 -0.000000
v -0.000000 0.000000 -0.500000
v -0.000000 0.000000 -1.000000
v 1.000000 0.000000 1.000000
v 1.000000 0.000000 0.500000
v 1.000000 0.000000 -0.000000
v 1.000000 0.000000 -0.500000
v 1.000000 0.000000 -1.000000
v 2.000000 0.000000 1.000000
v 2.000000 0.000000 0.500000
v 2.000000 0.000000 -0.000000
v 2.000000 0.000000 -0.500000
v 2.000000 0.000000 -1.000000
vt 0.833333 0.833333
vt 1.000000 0.833333
vt 1.000000 1.000000
vt 0.833333 1.000000
vt 0.000000 0.833333
vt 0.166667 0.833333
vt 0.166667 1.000000
vt 0.000000 1.000000
vt 0.333333 0.833333
vt 0.333333 1.000000
vt 0.500000 0.833333
vt 0.500000 1.000000
vt 0.666667 0.833333
vt 0.666667 1.000000
vt 0.000000 0.000000
vt 0.166667 0.000000
vt 0.166667 0.166667
vt 0.000000 0.166667
vt 0.166667 0.333333
vt 0.000000 0.333333
vt 0.166667 0.500000
vt 0.000000 0.500000
vt 0.166667 0.666667
vt 0.000000 0.666667
vt 0.333333 0.000000
vt 0.333333 0.166667
vt 0.333333 0.333333
vt 0.333333 0.500000
vt 0.333333 0.666667
vt 0.500000 0.000000
vt 0.500000 0.166667
vt 0.500000 0.333333
vt 0.500000 0.500000
vt 0.500000 0.666667
vt 0.666667 0.000000
vt 0.666667 0.166667
vt 0.666667 0.333333
vt 0.666667 0.500000
vt 0.666667 0.666667
vt 0.833333 0.000000
vt 0.833333 0.166667
vt 0.833333 0.333333
vt 0.833333 0.500000
vt 0.833333 0.666667
vt 1.000000 0.000000
vt 1.000000 0.166667
vt 1.000000 0.333333
vt 1.000000 0.500000
vt 1.000000 0.666667
vn 0.0000 1.0000 0.0000
usemtl None
s off
f 49/1/1 19/2/1 4/3/1 20/4/1
f 5/5/1 29/6/1 24/7/1 3/8/1
f 29/6/1 34/9/1 23/10/1 24/7/1
f 34/9/1 39/11/1 22/12/1 23/10/1
f 39/11/1 44/13/1 21/14/1 22/12/1
f 44/13/1 49/1/1 20/4/1 21/14/1
f 1/15/1 10/16/1 25/17/1 9/18/1
f 9/18/1 25/17/1 26/19/1 8/20/1
f 8/20/1 26/19/1 27/21/1 7/22/1
f 7/22/1 27/21/1 28/23/1 6/24/1
f 6/24/1 28/23/1 29/6/1 5/5/1
f 10/16/1 11/25/1 30/26/1 25/17/1
f 25/17/1 30/26/1 31/27/1 26/19/1
f 26/19/1 31/27/1 32/28/1 27/21/1
f 27/21/1 32/28/1 33/29/1 28/23/1
f 28/23/1 33/29/1 34/9/1 29/6/1
f 11/25/1 12/30/1 35/31/1 30/26/1
f 30/26/1 35/31/1 36/32/1 31/27/1
f 31/27/1 36/32/1 37/33/1 32/28/1
f 32/28/1 37/33/1 38/34/1 33/29/1
f 33/29/1 38/34/1 39/11/1 34/9/1
f 12/30/1 13/35/1 40/36/1 35/31/1
f 35/31/1 40/36/1 41/37/1 36/32/1
f 36/32/1 41/37/1 42/38/1 37/33/1
f 37/33/1 42/38/1 43/39/1 38/34/1
f 38/34/1 43/39/1 44/13/1 39/11/1
f 13/35/1 14/40/1 45/41/1 40/36/1
f 40/36/1 45/41/1 46/42/1 41/37/1
f 41/37/1 46/42/1 47/43/1 42/38/1
f 42/38/1 47/43/1 48/44/1 43/39/1
f 43/39/1 48/44/1 49/1/1 44/13/1
f 14/40/1 2/45/1 15/46/1 45/41/1
f 45/41/1 15/46/1 16/47/1 46/42/1
f 46/42/1 16/47/1 17/48/1 47/43/1
f 47/43/1 17/48/1 18/49/1 48/44/1
f 48/44/1 18/49/1 19/2/1 49/1/1
